<svg xmlns="http://www.w3.org/2000/svg" viewBox="-21.932 -32.813 366.132 129.250" role="img" aria-label="BO-WERT GmbH Logo">
  <path d="M -17.384044 92.274104 C -17.865423 92.11411199999999 -17.932144 89.41196799999999 -17.483544 88.244754 C -17.180396 87.45599 -16.313402999999997 83.75073 -15.849039999999999 81.259382 C -15.722439999999999 80.580169 -15.325512999999999 78.674825 -14.966976999999998 77.025276 C -13.760226999999999 71.473303 -13.634435999999997 70.861715 -12.898637999999998 66.969329 C -12.495116999999999 64.834669 -11.943051999999998 62.294192 -11.671831999999998 61.323817000000005 C -11.400609 60.353444 -10.919280999999998 58.209908000000006 -10.602206999999998 56.560394 C -9.696891799999998 51.850652000000004 -9.093732499999998 48.938331000000005 -8.117636499999998 44.563807000000004 C -6.933512299999998 39.256964 -6.619686699999998 37.728770000000004 -6.233726499999998 35.389954 C -6.057594299999998 34.322649000000006 -5.740521999999998 33.002355 -5.529119999999998 32.455961 C -5.317718299999998 31.909575000000004 -5.145216299999998 30.924706 -5.145783199999998 30.267369000000002 C -5.146354699999998 29.610036 -5.006255299999998 28.707433 -4.8344622999999975 28.261592 C -4.662668499999998 27.815752 -4.354676599999998 26.657081 -4.150036099999998 25.686765 C -3.9453948999999975 24.716450000000002 -3.3765277999999976 22.096583000000003 -2.8858858999999977 19.864839 C -2.3952440999999975 17.633096000000002 -1.9432078999999978 15.410205 -1.8813591999999977 14.925082 C -1.8195041999999977 14.439959 -1.4289910999999977 12.534621 -1.0135406999999976 10.690998 C -0.5980884699999977 8.847376500000001 -0.001997539999997633 5.9893605 0.3111092000000024 4.3398539000000005 C 1.6761027000000024 -2.8512223 1.8845032000000024 -3.8657057000000004 2.4284980000000025 -5.9674895999999995 C 2.7443220000000026 -7.187712899999999 3.1274961000000023 -8.900565199999999 3.279993100000002 -9.7738216 C 3.9592784000000023 -13.663597 5.094672700000002 -19.200141000000002 5.378368600000002 -20.006191 C 5.549146200000002 -20.491408 5.779424700000002 -21.307534 5.890090100000002 -21.819805000000002 C 6.000759100000002 -22.332075000000003 6.338771000000002 -22.846412 6.641226700000002 -22.962775 C 7.294160200000002 -23.213973 19.61221 -23.478608 44.72569000000001 -23.780956 C 54.81503200000001 -23.902427 63.704942 -24.009478 64.48104800000002 -24.018826 C 67.91582600000001 -24.060306 77.81484800000001 -23.586477000000002 80.70950100000002 -23.242034 C 85.82227800000001 -22.633642000000002 94.36588100000002 -20.733966 95.15852500000001 -20.029277 C 95.342994 -19.865277 95.77967100000001 -19.731343 96.12892000000001 -19.731645 C 96.478171 -19.731926 96.764058 -19.573438 96.76422500000001 -19.379415 C 96.76434800000001 -19.185383 97.014543 -19.026852 97.32011500000002 -19.027116000000003 C 99.24366700000002 -19.028816000000003 107.68196900000001 -11.717758000000003 107.70398900000002 -10.030440000000002 C 107.70898900000002 -9.630962600000002 108.97580900000003 -8.450589900000002 109.38948900000003 -8.459695400000003 C 109.53277900000002 -8.463015400000003 110.36384900000003 -9.103782200000003 111.23629900000003 -9.883989500000002 C 112.10874900000003 -10.664195000000001 113.25890900000003 -11.570061000000003 113.79220900000003 -11.897025000000003 C 114.32550900000003 -12.223982000000003 114.76172900000003 -12.616020000000002 114.76159900000003 -12.768217000000003 C 114.76233900000003 -12.920390000000003 114.94344900000003 -13.045087000000004 115.16599900000003 -13.045279000000004 C 115.38854900000003 -13.045450000000004 116.22998900000003 -13.586869000000004 117.03584900000003 -14.248380000000004 C 117.84171900000003 -14.909891000000005 119.44466900000003 -15.961723000000005 120.59794900000003 -16.585778000000005 C 121.75121900000003 -17.209839000000006 123.09147900000002 -17.988297000000006 123.57626900000002 -18.315689000000006 C 124.96139900000003 -19.251104000000005 130.16024900000002 -21.679822000000005 133.450069 -22.928372000000007 C 136.89644900000002 -24.236339000000008 141.002679 -25.437298000000006 146.85223900000003 -26.848149000000006 C 152.08873900000003 -28.111132000000005 169.48399900000004 -28.813372000000008 173.39277900000002 -27.919582000000005 C 174.22034900000003 -27.730348000000006 176.00884900000003 -27.430354000000005 177.36718900000002 -27.252933000000006 C 189.889449 -25.617308000000005 203.06525900000003 -17.674087000000007 208.78904900000003 -8.309836000000004 C 209.71929900000003 -6.787937300000005 210.72969900000004 -5.146083200000004 211.03438900000003 -4.661275600000004 C 211.33905900000002 -4.176469900000004 211.86952900000003 -2.986302300000004 212.21324900000002 -2.016459000000004 C 212.55692900000003 -1.0466162000000043 212.991159 0.06426040999999572 213.17815900000002 0.4521540599999958 C 213.69856900000002 1.5316324999999957 214.96676900000003 6.081970799999995 214.96745900000002 6.872167799999996 C 214.96812900000003 7.257742799999996 215.28148900000002 7.8563661999999965 215.66457900000003 8.202453199999995 C 216.29619900000003 8.773077599999995 216.89602900000003 8.810260999999995 222.10309900000004 8.601589499999996 C 231.80817900000005 8.212669899999996 293.20787900000005 7.499249799999996 322.38880900000004 7.436351699999996 L 340.02767900000003 7.398322699999996 L 340.13851900000003 8.350919099999995 C 340.199519 8.874847299999995 340.05511900000005 9.667241199999996 339.81758900000005 10.111798899999995 C 339.42590900000005 10.845145899999995 338.94074900000004 12.936474899999995 337.74578900000006 19.041959899999995 C 337.51790900000003 20.206322899999996 337.1996290000001 21.476598899999995 337.0385590000001 21.864792899999994 C 336.8774690000001 22.252987899999994 336.6403390000001 23.205691899999994 336.51161900000005 23.981915899999994 C 336.23239900000004 25.665216899999994 335.85756900000007 27.414570899999994 335.11282900000003 30.509511899999993 C 334.80932900000005 31.77095389999999 334.42352900000003 33.517537899999994 334.255489 34.390808899999996 C 333.389359 38.89241689999999 333.088799 40.24395689999999 332.88234900000003 40.565613899999995 C 332.69128900000004 40.863228899999996 331.772369 44.942732899999996 330.77611900000005 49.916044899999996 C 330.57348900000005 50.92758189999999 330.30648900000006 51.2221499 329.30022900000006 51.5444179 C 328.5008690000001 51.8003969 321.2317990000001 52.0278649 308.49274900000006 52.1954729 C 297.72431900000004 52.3371779 284.5482390000001 52.5263949 279.2125290000001 52.6159519 C 273.8768590000001 52.7055419 258.3195790000001 52.9667279 244.64080900000008 53.1964529 C 230.96203900000006 53.426167899999996 216.53818900000007 53.6398059 212.58777900000007 53.6711999 L 205.40522900000008 53.728299899999996 L 204.44118900000007 54.88531089999999 C 203.91096900000005 55.52166689999999 203.25484900000006 56.47473289999999 202.98313900000005 57.003237899999995 C 202.71141900000006 57.531740899999996 202.29051900000005 58.0912739 202.04781900000006 58.2466459 C 201.80509900000007 58.4020149 201.60669900000005 58.759375899999995 201.60693900000007 59.0407759 C 201.60761900000006 59.3221659 201.47291900000008 59.5525329 201.30850900000007 59.5526729 C 201.14415900000006 59.552805899999996 200.86659900000006 59.8645849 200.69174900000007 60.2455049 C 200.20612900000006 61.3034949 197.25017900000006 64.6091849 193.11085900000006 68.7233449 C 188.74529900000007 73.0623599 186.79289900000006 74.7377149 183.84138900000005 76.6774609 C 182.65891900000005 77.4545919 181.63860900000006 78.2095319 181.57404900000006 78.3551059 C 181.50954900000005 78.5006839 181.24501900000007 78.61997889999999 180.98631900000007 78.62020389999999 C 180.72761900000006 78.62038489999999 180.46313900000007 78.74364489999999 180.39858900000007 78.89401989999999 C 180.24408900000006 79.25400389999999 174.20264900000006 82.8593959 173.75332900000006 82.85978089999999 C 173.56208900000007 82.85994589999999 172.65180900000007 83.2502019 171.73047900000006 83.72699689999999 C 165.87906900000007 86.7552329 157.37853900000005 89.36459289999999 149.07033900000005 90.68282889999999 C 138.01541900000004 92.43689189999999 128.50405900000004 92.21340389999999 118.20162900000005 89.95747589999999 C 117.23131900000006 89.74501289999999 115.80229900000005 89.4325049 115.02602900000005 89.26302489999999 C 112.56865900000005 88.72651289999999 110.61526900000005 88.0698669 110.61503900000005 87.78022789999999 C 110.61487900000006 87.62625989999998 110.44542900000005 87.50048289999998 110.23840900000005 87.50066089999999 C 109.55871900000005 87.50121189999999 103.03389900000005 84.23425389999998 102.74472900000005 83.74855089999998 C 102.58931900000005 83.48755489999998 102.30908900000004 83.27415789999998 102.12195900000005 83.27431889999998 C 101.27730900000005 83.27504189999998 93.67200500000004 76.54300289999998 93.67135900000005 75.79404389999998 C 93.67075900000005 75.09294389999998 91.94765400000006 75.66091389999998 90.72282700000005 76.76594589999998 C 89.97438100000005 77.44118189999998 89.24433800000006 77.99376189999998 89.10051500000006 77.99388589999998 C 88.95668600000006 77.99406389999999 88.34107100000006 78.47079089999998 87.73248100000006 79.05339589999998 C 87.12388700000007 79.63599989999999 86.47898300000007 80.11281689999998 86.29935600000006 80.11297289999999 C 86.11973100000006 80.11312889999999 85.91995400000006 80.23235789999998 85.85540100000006 80.37794389999999 C 85.68739100000006 80.75684989999999 82.25092000000006 82.82301489999999 81.27251200000006 83.13338689999999 C 80.81943900000006 83.27710889999999 80.06576100000007 83.64557789999999 79.59767100000006 83.9522119 C 78.71075800000006 84.5331969 76.40588900000006 85.42782489999999 73.39574200000007 86.35946089999999 C 72.42586100000007 86.65964689999998 71.31492800000007 87.0288849 70.92700400000007 87.18000089999998 C 68.40967700000007 88.16058189999998 59.36609300000006 90.01398389999999 57.089083000000066 90.01593889999998 C 56.429586000000064 90.01657789999999 55.62275000000007 90.15774389999999 55.296106000000066 90.32982989999998 C 54.105694000000064 90.95691489999997 37.27892300000006 91.46958289999998 0.1991986000000665 92.00848989999997 C -7.076754799999933 92.11425789999997 -13.917607999999934 92.24779089999997 -15.002697999999933 92.30529789999997 C -16.087789999999934 92.36284789999998 -17.159364999999934 92.34875789999997 -17.383975999999933 92.27413789999997 Z M 23.127545 89.515498 C 44.826997000000006 89.150487 56.706625 88.42459 62.283828 87.122856 C 67.590932 85.88418 72.419729 84.622355 72.94816900000001 84.336129 C 73.28492800000001 84.15374 73.76105000000001 84.003588 74.00621600000001 84.002477 C 74.656305 83.999877 78.495349 82.389645 78.958397 81.925797 C 79.175679 81.708138 79.609272 81.52983400000001 79.921936 81.52956400000001 C 80.234601 81.529311 80.806004 81.25099200000001 81.19172900000001 80.911111 C 81.577447 80.571228 82.24197000000001 80.09440400000001 82.668445 79.851506 C 83.094918 79.608598 83.794728 79.21112600000001 84.223579 78.968216 C 84.652428 78.725315 85.219052 78.327955 85.482739 78.085188 C 85.746425 77.842432 86.078561 77.643705 86.22081 77.64358200000001 C 86.848046 77.643061 93.171848 71.47362500000001 93.91911 70.13323100000001 C 94.26466 69.51339300000001 94.705965 68.810291 94.899787 68.57076500000001 C 95.093607 68.331247 95.41594500000001 67.93119000000002 95.616091 67.68174800000001 C 95.81623499999999 67.43230400000002 96.27553999999999 66.59295800000001 96.636772 65.81653700000001 C 96.99799999999999 65.04011400000002 97.38907599999999 64.32540700000001 97.505832 64.22828700000001 C 97.907183 63.89444900000001 99.88780799999999 57.991510000000005 100.10615 56.47845200000001 C 100.20235 55.81163800000001 99.062015 55.57721200000001 98.399888 56.12769200000001 C 98.118367 56.36174500000001 97.888354 56.92130300000001 97.88874100000001 57.37116400000001 C 97.889131 57.82102300000001 97.74298800000001 58.279779000000005 97.56398600000001 58.39062400000001 C 97.38497900000002 58.50147800000001 97.13775900000002 59.05283200000001 97.01460300000001 59.61587800000001 C 96.71447800000001 60.98796700000001 93.81652000000001 66.59342900000001 92.75224200000001 67.860466 C 92.28430000000002 68.41756000000001 91.901576 69.03535000000001 91.901746 69.23333000000001 C 91.90221 69.77269100000001 84.982984 76.49733900000001 84.157003 76.760282 C 83.76362300000001 76.88551100000001 83.441868 77.110258 83.441997 77.259727 C 83.442088 77.409198 82.529804 77.976895 81.414612 78.521287 C 80.29942100000001 79.065679 79.307702 79.608224 79.21079 79.726958 C 78.968342 80.023996 76.128055 81.359286 74.626537 81.88214099999999 C 73.947643 82.118546 73.07480699999999 82.453599 72.686899 82.62671399999999 C 72.298994 82.79981799999999 70.632526 83.273215 68.98364 83.67870799999999 C 67.334752 84.08418999999999 65.430177 84.57782199999998 64.751249 84.77565699999998 C 63.559396 85.12295499999998 62.870504000000004 85.25183899999998 57.520469 86.12843299999999 C 53.482678 86.79001599999998 45.992793 87.14843399999998 31.415982 87.377614 C 23.848999 87.496584 16.070396 87.670328 14.130198 87.76369899999999 C 12.19 87.857072 5.4078001 88.04257 -0.94135986 88.175955 C -11.698155 88.401895 -12.501339 88.376706 -12.720732 87.806443 C -12.94642 87.219826 -12.453747 84.367953 -11.741457 82.137783 C -11.412293 81.107177 -11.049588 79.392423 -10.398061 75.786621 C -10.22274 74.816328 -9.7555948 72.771765 -9.3599575 71.243133 C -8.9643215 69.714511 -8.6409265 68.107143 -8.6413023 67.671213 C -8.6416794 67.235284 -8.3093331 65.627915 -7.902759 64.099274 C -7.4961851 62.570643 -7.0912146 60.764253 -7.0028253 60.08507699999999 C -6.9144403 59.40589999999999 -6.6209451999999995 57.89752599999999 -6.350623199999999 56.733121999999995 C -5.7703931 54.233810999999996 -5.6641072999999995 53.73492999999999 -4.9223487 50.029107999999994 C -4.6116011 48.47662 -4.2227295 46.650662999999994 -4.0581911 45.97142199999999 C -3.8936519 45.29217999999999 -3.5139449000000003 43.54560199999999 -3.2143957000000003 42.09013299999999 C -2.9148475000000005 40.63466399999999 -2.4177841000000004 38.252988999999985 -2.1098100000000004 36.79751499999999 C -1.8018360000000004 35.34203999999999 -1.3919802000000003 33.35731099999999 -1.1990178000000005 32.38700599999999 C -1.0060554000000004 31.416693999999993 -0.7138841600000005 30.06706699999999 -0.5497478900000005 29.387826999999994 C -0.19135368 27.904698 1.0389211 21.953475 1.8937896 17.567661 C 2.2342247 15.821117 2.6911222 13.945076 2.9091231 13.398679 C 3.1271271 12.852285 3.3049501 11.778413 3.3042894 11.012301 C 3.3036291 10.246189 3.4446998 9.3435887 3.617778 9.0065234 C 3.7908564 8.6694561 4.1801236 6.9647139 4.4828108 5.218202 C 5.4238768 -0.21174194 6.5410599 -5.3184455 7.0417802 -6.4789912 C 7.30567 -7.0906255 7.5209707 -8.3017352 7.5202217 -9.1703517 C 7.519478 -10.038964 7.7499555 -11.304084 8.0324091 -11.981731 C 8.3148619 -12.659375 8.6553805 -14.290981 8.789116400000001 -15.607522 C 9.169491200000001 -19.352028 9.034039700000001 -19.292097 17.30101 -19.373586 C 21.133029 -19.411336 25.220786 -19.475746 26.384918 -19.516776 C 31.63852 -19.701712 78.690524 -19.750117 79.47794400000001 -19.571356 C 79.96310700000001 -19.461235000000002 81.44466500000001 -19.216594 82.77029200000001 -19.027704 C 87.559019 -18.345353 92.05749500000002 -16.994015 96.06241700000001 -15.034767 C 99.27126000000001 -13.464961 99.64630700000001 -13.210636000000001 101.71292000000001 -11.203087 C 102.88090000000001 -10.068473000000001 103.45403000000002 -9.1123893 104.95959 -5.7869674 C 105.90076 -3.7081778 105.85292000000001 2.948814799999999 104.87339 6.2150488 C 104.69463 6.8110629 104.54889 7.8827507 104.5495 8.5965794 C 104.55042999999999 9.662735999999999 104.6776 9.8943392 105.2619 9.8938356 C 106.69892999999999 9.8925956 107.72215 5.860887099999999 107.71728 0.21905612999999846 C 107.71228 -5.598264700000001 106.68393 -8.456657600000002 103.19136 -12.361371000000002 C 101.78516 -13.933504000000003 98.160782 -16.558384000000004 97.397116 -16.557725 C 97.14047 -16.55751 96.377387 -16.918381 95.701373 -17.359674000000002 C 94.151319 -18.371538 92.241254 -19.048064000000004 89.355737 -19.607241000000002 C 88.870586 -19.701251000000003 88.15602700000001 -19.914853 87.767826 -20.081897 C 87.002071 -20.411411 86.584031 -20.475725 79.476446 -21.357505000000003 C 75.595354 -21.839003 71.38210099999999 -21.949599000000003 56.721757 -21.954809000000004 C 46.826335 -21.958309000000003 35.475739 -21.919549000000004 31.498212999999996 -21.868639000000005 C 27.520684999999997 -21.817739000000007 24.028214999999996 -21.779999000000004 23.737170999999996 -21.784789000000004 C 23.446124999999995 -21.789489000000003 19.811541999999996 -21.720319000000003 15.660322999999996 -21.630872000000004 C 9.917324499999996 -21.507135000000005 7.997559799999997 -21.352954000000004 7.6313042999999965 -20.986065000000004 C 7.145332799999997 -20.499259000000002 6.1398860999999965 -15.833075000000004 5.9122229999999965 -13.007974000000004 C 5.844378999999996 -12.166095000000004 5.610554499999997 -11.262055000000004 5.392613199999996 -10.998988000000004 C 5.174671899999996 -10.735925000000003 4.870252699999996 -9.360670400000004 4.7161262999999956 -7.942871600000004 C 4.5619588 -6.525065 4.2656297 -4.8886507 4.0575726 -4.3063872 C 3.6901801 -3.2782126 2.8463563 0.40330822 2.2378898 3.6326855 C 2.0733558 4.505946 1.7097693 6.2128213 1.4299231 7.4257371 C 1.1500798 8.638652 1.0125626 9.6309591 1.1243291 9.6308626 C 1.2360966 9.6307521 1.1371940999999999 9.8213524 0.90457517 10.054386000000001 C 0.6719421999999999 10.287419000000002 0.47636899 10.962276000000001 0.46996835 11.554066 C 0.46357835 12.145856 0.20572703999999997 13.582767 -0.10300657000000008 14.747201 C -0.41174157000000006 15.911634000000001 -0.73673842 17.697853000000002 -0.8252230600000001 18.716576 C -0.9137046600000001 19.735295999999998 -1.1371198000000002 20.568928 -1.3216948000000002 20.569086 C -1.5062729000000001 20.56919 -1.6251196 20.767785999999997 -1.5858034 21.010286999999998 C -1.5464834 21.252788 -1.6048484 21.689400999999997 -1.7154961000000002 21.980538 C -1.8261441000000003 22.271674 -2.177039 24.16449 -2.4952624 26.186796 C -2.8134855 28.209099000000002 -3.2798509 30.273252 -3.5316314 30.773802 C -3.7834117000000003 31.274351 -3.9143862 31.894333 -3.8226855000000004 32.151541 C -3.6642201000000005 32.596014000000004 -4.1500028 34.891896 -4.806220700000001 36.799875 C -4.973101300000001 37.285088 -5.1714305000000005 38.475885 -5.246951000000001 39.44609 C -5.3224740000000015 40.416295999999996 -5.566217700000001 41.657146 -5.788609400000001 42.203547 C -6.0110024000000015 42.74995 -6.192630500000002 43.577997 -6.192228900000002 44.043656 C -6.191826300000002 44.509316 -6.414563400000001 45.570729 -6.687198100000002 46.402364 C -7.266429000000001 48.169233999999996 -7.510454700000001 49.375506 -7.775244000000002 51.780825 C -7.881161500000002 52.742977 -8.161681100000001 53.653608 -8.398617200000002 53.804433 C -8.635553100000003 53.955256000000006 -8.731661800000001 54.081010000000006 -8.612191200000002 54.083876000000004 C -8.492718400000001 54.086776 -8.531585200000002 54.763888 -8.698555200000001 55.588651000000006 C -8.865522600000002 56.413417 -9.095779300000002 57.80267500000001 -9.210236400000001 58.675904 C -9.3246949 59.549124000000006 -9.6412337 60.944007 -9.913658400000001 61.775643 C -10.1860821 62.607277 -10.4085011 63.83778 -10.407921100000001 64.510099 C -10.407365100000002 65.182419 -10.565619100000001 65.732625 -10.759644100000001 65.732793 C -10.953676100000001 65.732915 -11.112097100000002 66.110778 -11.111698100000002 66.572388 C -11.110799100000001 67.612386 -12.359628100000002 74.70082500000001 -12.797566100000001 76.141504 C -12.9745541 76.723737 -13.1271181 77.279498 -13.136599100000002 77.37651699999999 C -13.146199100000002 77.47352699999999 -13.243215100000002 78.10861899999999 -13.352455100000002 78.787814 C -13.461692100000002 79.46700799999999 -13.618396100000002 80.57839299999999 -13.700673100000001 81.25756799999999 C -13.782963100000002 81.93672799999999 -14.107779100000002 83.44514099999999 -14.4225021 84.60956999999999 C -15.1996701 87.484996 -15.419352100000001 88.97286399999999 -15.164531100000001 89.63519699999999 C -14.972666100000001 90.133906 -13.557346100000002 90.16611199999998 -1.467678600000001 89.946929 C 5.9479052 89.812472 17.015757 89.61835 23.127545 89.515538 Z M 143.07184 89.297514 C 153.54262 88.126365 160.18557 86.49628700000001 167.28532 83.35591400000001 C 167.89649 83.08557600000002 168.65036 82.86416500000001 168.9606 82.86389900000002 C 169.27082 82.86373100000002 169.52521 82.74435100000002 169.52593 82.59883000000002 C 169.52633999999998 82.45330200000002 170.48699 81.93654300000001 171.66 81.45045900000002 C 172.83305 80.96437900000002 174.06211 80.32384800000003 174.39129 80.02706500000002 C 174.72044 79.73026900000002 176.05379 78.96016200000003 177.35421 78.31569900000002 C 178.65466 77.67123700000002 180.03298 76.87086800000003 180.41715 76.53709700000002 C 180.80131 76.20333500000002 181.54209 75.62228800000001 182.0633 75.24587700000002 C 188.46614 70.62192300000002 189.26349 69.91424700000002 194.33281 64.35604300000003 C 195.90923 62.627613000000025 197.43694 60.95459600000003 197.72769 60.63823500000003 C 198.01846 60.32187500000003 198.48854 59.61744800000003 198.77232 59.07284400000003 C 199.05610000000001 58.52824800000003 199.65068 57.69094400000003 200.09364 57.21216300000003 C 200.53658 56.733390000000036 200.89885999999998 56.19109800000003 200.89872 56.00706800000003 C 200.89798 55.82305000000003 201.05716999999999 55.67233200000003 201.25119 55.672165000000035 C 201.44523 55.67204300000004 201.60362 55.264280000000035 201.60319 54.766140000000036 C 201.60291 53.98976000000003 201.48907 53.895370000000035 200.80887 54.105095000000034 C 200.37242 54.23966200000003 199.99807 54.36974500000004 199.97697000000002 54.394163000000034 C 199.95577000000003 54.41857300000004 198.86949 55.868238000000034 197.56279000000004 57.61561600000003 C 195.62350000000004 60.208909000000034 192.25523000000004 64.15245500000003 189.70292000000003 66.81789600000003 C 189.45817000000002 67.07348600000003 188.07013000000003 68.26683400000003 186.61840000000004 69.46978700000004 C 185.16666000000004 70.67274000000003 183.97896000000003 71.79436400000004 183.97912000000002 71.96229400000004 C 183.97958000000003 72.13023500000004 183.75260000000003 72.26781000000004 183.47542 72.26804800000004 C 183.19823000000002 72.26830800000003 182.76185 72.47703300000003 182.50569000000002 72.73192300000004 C 181.18750000000003 74.04352200000004 175.12016000000003 77.70837500000003 170.75674 79.82863800000004 C 164.79995 82.72313600000004 164.93135 82.66758200000004 162.29316 83.40715800000004 C 161.12928 83.73343100000004 159.85961 84.12543600000004 159.47169 84.27827100000003 C 159.08375 84.43111600000003 158.05216 84.75203400000004 157.17925 84.99142600000003 C 156.30632 85.23083100000004 155.19536 85.55725800000003 154.71042 85.71682700000004 C 151.96558 86.62000400000004 145.53465 87.61325000000004 143.0009 87.52533500000004 C 142.28362 87.50045500000004 141.60307 87.63195700000004 141.48856 87.81759000000004 C 141.37029 88.00926800000003 139.03784000000002 88.14723300000004 136.09017 88.13690400000004 C 125.61349 88.10013400000004 119.45883 86.96425400000004 110.08196000000001 83.33677900000005 C 107.36293 82.28490400000005 99.564107 76.97152600000005 99.03081100000001 75.80756600000005 C 98.97095100000001 75.67700200000004 98.23125200000001 74.82967300000006 97.38694000000001 73.92459300000004 C 95.78201700000001 72.20414500000004 94.43093100000002 71.86319900000004 94.67154400000001 73.23935200000004 C 94.73815400000001 73.62032500000004 94.93690800000002 73.98481500000004 95.11321300000002 74.04933300000003 C 95.28952600000001 74.11388300000003 95.43395400000001 74.36997600000004 95.43416700000002 74.61848500000004 C 95.43456300000001 75.11870700000003 100.11241000000001 79.43631500000004 102.10768000000002 80.77812400000003 C 102.80620000000002 81.24787100000003 103.45716000000002 81.72570000000003 103.55430000000001 81.83996700000003 C 103.73406000000001 82.05150300000003 110.20931000000002 85.25105000000003 111.49517000000002 85.76372000000003 C 112.13421000000001 86.01851000000003 113.87152000000002 86.59110200000003 117.83031000000001 87.85171000000004 C 119.59207 88.41270100000004 122.82390000000001 88.83732300000004 129.31355000000002 89.36046700000004 C 135.21926000000002 89.83653700000005 138.38206000000002 89.82207000000004 143.07184 89.29750700000004 Z M 45.583198 63.920549 C 49.033550000000005 63.723689 52.729542 63.391816 53.796516000000004 63.183036 C 56.532178 62.647757 60.16251200000001 61.230866 61.203604000000006 60.292098 C 62.710412000000005 58.933388 64.726026 56.231809000000005 64.73855400000001 55.554108 C 64.74515400000001 55.198712 64.977029 54.510852 65.25390100000001 54.025544 C 65.986286 52.741791 65.93020900000002 48.721008 65.15989100000002 47.285461 C 63.84709500000002 44.838943 62.766632000000016 44.173753 57.83586200000001 42.776447 C 56.640329000000015 42.437646 48.619056000000015 41.957603 45.13520300000001 42.016357 C 30.841344000000014 42.257417 31.921963000000012 42.044847 31.91367600000001 44.617478 C 31.91147600000001 45.34509 31.75066300000001 45.94054 31.55663900000001 45.940706 C 31.362608000000012 45.940829 31.204399000000013 46.566641 31.20505800000001 47.331300999999996 C 31.205723000000013 48.095960999999996 31.062488000000013 48.810613 30.88676900000001 48.919425999999994 C 30.711048000000012 49.028237999999995 30.645831000000012 49.47422399999999 30.741839000000013 49.91051099999999 C 30.869406000000012 50.49023199999999 30.824439000000012 50.57415099999999 30.574750000000012 50.22226599999999 C 30.329196000000014 49.876206999999994 30.225719000000012 50.12436599999999 30.206854000000014 51.10453199999999 C 30.192394000000014 51.854595999999994 30.009141000000014 53.26218499999999 29.799568000000015 54.23250499999999 C 29.590004000000015 55.20281599999999 29.361824000000016 56.33925299999999 29.292509000000013 56.75790399999999 C 29.22319900000001 57.17655299999999 29.003693000000013 58.04986199999999 28.804731000000015 58.698593999999986 C 27.952589000000014 61.477139999999984 27.820442000000014 62.38588499999999 28.132708000000015 63.31998499999999 L 28.456251000000016 64.287827 L 33.883040000000015 64.283127 C 36.86777100000002 64.28052699999999 42.132840000000016 64.117387 45.583191000000014 63.920528999999995 Z M 31.053697 61.836396 C 30.770022 61.378281 31.061297 58.653459 31.54616 57.229612 C 31.711385 56.744401 32.028214 55.156626 32.250224 53.701226000000005 C 32.472236 52.24582300000001 32.87872 50.26110200000001 33.153516 49.290724000000004 C 33.428313 48.320347000000005 33.748838000000006 46.862961000000006 33.865797 46.052098 C 34.043127 44.822644000000004 34.251101 44.517436000000004 35.117989 44.2144 C 36.620811 43.689062 52.629586 43.799948 56.170277 44.360226 C 59.416917999999995 44.873977 61.734937 45.785546999999994 62.778393 46.958898999999995 C 63.802911 48.110955999999995 63.807387 53.300743 62.785393 55.070955999999995 C 60.992160999999996 58.177052999999994 58.710465 59.831951 54.147735999999995 61.33580499999999 C 52.004383 62.042244 31.456995999999993 62.48764299999999 31.053732999999994 61.83639899999999 Z M 49.898754 59.823915 C 51.540029999999994 59.71528 53.156577 59.479617 53.491082999999996 59.300218 C 53.82559199999999 59.12083 54.402603 58.973791 54.773334 58.973472 C 55.144062999999996 58.973134 56.39483 58.359374 57.552811999999996 57.609515 C 59.273470999999994 56.495292 59.830932999999995 55.880581 60.603218 54.245843 C 61.918493 51.461738000000004 61.887572999999996 49.422334 60.510168 48.10828 C 58.885961 46.558781 56.782664 46.219474 48.777866 46.215616 C 35.52349100000001 46.209216 36.281762 46.147895999999996 35.864593 47.259902 C 35.555938 48.082657999999995 33.627262 56.62430499999999 33.255348 58.815636 C 32.995041 60.349362 33.466789 60.442626 40.38841 60.225846 C 43.977829 60.113436 48.257486 59.932565999999994 49.898759 59.823916 Z M 148.34068 62.831181 C 150.3626 62.497658 154.73601 61.103715 155.04162 60.69539 C 155.13852 60.565925 155.66592 60.262473 156.21361 60.021040000000006 C 157.65697 59.384806000000005 162.09301 55.84962000000001 162.09256 55.33596000000001 C 162.09356 55.19662300000001 161.67935 55.00404600000001 161.17457 54.90800300000001 C 160.51663 54.782807000000005 159.94254999999998 55.004073000000005 159.14676999999998 55.689620000000005 C 154.37921999999998 59.79667200000001 149.54249999999996 61.473325 142.32929 61.519384 L 137.90657 61.547604 L 135.18443 60.20776 C 133.68723 59.470862 132.46214 58.717858 132.46197999999998 58.534427 C 132.46130999999997 58.351012000000004 132.26324999999997 58.196719 132.02070999999998 58.191586 C 131.77818 58.186786 131.18239999999997 57.641471 130.69674999999998 56.980519 C 128.79662 54.394457 126.94925999999998 54.83532 128.68918999999997 57.459611 C 130.57140999999996 60.298498 134.54763999999997 62.724312000000005 137.40450999999996 62.776658000000005 C 137.88958999999997 62.785258000000006 138.52475999999996 62.95608000000001 138.81595999999996 63.155629000000005 C 139.39891999999998 63.55510700000001 145.13709999999998 63.359641 148.34068999999997 62.831175 Z M 146.57371 59.235664 C 149.11547000000002 58.835632 150.07497 58.526883 152.92195 57.192938 C 154.77528 56.324549 155.74282000000002 55.643457 155.74247 55.207436 C 155.74211 55.096566 150.88997 55.01003 144.95937 55.015144 C 132.08873 55.026244 131.26978 55.215247 134.4369 57.443568 C 137.10847 59.323216 141.705 60.001932 146.57371 59.235664 Z M 97.733697 53.531267 C 105.89637 53.458727 112.72249000000001 53.316805 112.90287000000001 53.215905 C 113.08324 53.115011 118.62526000000001 52.990546 125.21843000000001 52.939304 C 131.8116 52.888124 137.29372 52.791821 137.40091 52.72548 C 137.50811000000002 52.65909 146.16291 52.503508999999994 156.63381 52.379746 C 167.10466000000002 52.255998999999996 179.08483 52.072513 183.25634000000002 51.972082 C 198.65395 51.601364000000004 228.53094000000002 51.090672 238.28888 51.031396 C 243.81864000000002 50.997826 254.05786 50.828214 261.04272000000003 50.654496 C 268.02757 50.480786 280.88613000000004 50.250095 289.61730000000006 50.141847 C 298.34845000000007 50.033559 310.57205000000005 49.845563999999996 316.78082000000006 49.724035 C 327.5327900000001 49.513562 328.0988500000001 49.46911 328.68627000000004 48.789149 C 329.02548 48.396497000000004 329.30265 47.643038000000004 329.30218 47.114787 C 329.30187 46.586534 329.42069000000004 46.035203 329.56573000000003 45.889519 C 329.86468 45.590031 329.90042000000005 45.410021 329.96087000000006 43.898687 C 329.9854700000001 43.277793 330.15393000000006 42.911958000000006 330.35701000000006 43.037215 C 330.56879000000004 43.167864 330.73093000000006 42.646914 330.76239000000004 41.734777 C 330.82059000000004 40.044794 330.86278000000004 39.74557 331.14956000000006 38.979594 C 331.41121000000004 38.280879999999996 332.0688600000001 35.085736 332.4863200000001 32.485025 C 332.67034000000007 31.338833 332.9550200000001 30.227338 333.11894000000007 30.015035 C 333.2828600000001 29.802728000000002 333.61570000000006 28.358854 333.8585800000001 26.806421 C 334.1014800000001 25.253994 334.51533000000006 23.215993 334.7782900000001 22.277544 C 335.0413000000001 21.339091 335.2271500000001 20.465805 335.19135000000006 20.336907999999998 C 335.15545000000003 20.208011999999997 335.31784000000005 19.756794 335.55194000000006 19.334201999999998 C 335.7860600000001 18.911610999999997 336.04506000000003 17.958887999999998 336.12750000000005 17.217036999999998 C 336.29513000000003 15.712084999999998 336.3755300000001 15.347047999999997 336.93388000000004 13.574597999999998 C 337.14785000000006 12.895315999999998 337.41730000000007 11.668131999999998 337.53263000000004 10.847520999999999 C 337.72653 9.467918099999999 337.67502 9.338667099999999 336.84849 9.131988799999998 C 336.35685 9.009051799999998 329.33084 9.012936799999999 321.23508000000004 9.1406488 C 313.13932000000005 9.268332099999999 298.65745000000004 9.4580015 289.05317 9.5621371 C 247.49298000000002 10.0127679 237.84896000000003 10.1313619 228.02323 10.312608899999999 C 222.29953 10.4181929 210.71091 10.5905499 202.27079 10.695638899999999 C 193.83067 10.800738899999999 181.36894 10.9766579 174.57805000000002 11.086624899999999 C 159.26424000000003 11.334593899999998 139.09011 11.5909269 117.42867000000001 11.812766899999998 C 88.39165000000001 12.110141899999999 85.07818400000002 12.224525899999998 84.55030300000001 12.947752899999998 C 84.29861200000002 13.292592899999997 84.09302900000002 13.981011899999997 84.09345600000002 14.477573899999998 C 84.09390900000001 14.974139899999997 83.84869200000001 16.491820899999997 83.54858600000001 17.8502029 C 83.24847700000001 19.208584899999998 82.87033500000001 21.193225899999998 82.70826400000001 22.2605189 C 82.54620300000002 23.327813900000002 82.13972700000001 25.3919129 81.80499900000001 26.847412900000002 C 81.22186 29.3830749 80.56512900000001 32.9231599 79.90679600000001 37.0796079 C 79.73774600000002 38.1469059 79.41980400000001 39.7346779 79.20025400000002 40.6079889 C 78.83299900000002 42.0688349 78.20477300000002 45.432178900000004 77.44102100000002 50.026398900000004 C 77.27348200000002 51.034233900000004 77.04173100000003 52.0122939 76.92602700000002 52.199863900000004 C 76.60564100000002 52.71925890000001 77.05965000000002 53.606709900000006 77.71916000000002 53.7502009 C 78.04224900000001 53.820520900000005 79.33842800000002 53.8297309 80.59955900000001 53.770620900000004 C 81.86069000000002 53.7115409 89.57106900000001 53.60386690000001 97.73373600000002 53.5313079 Z M 79.982804 51.348141 C 79.428995 50.943918 79.443484 50.654126 80.196084 47.083348 C 80.64016099999999 44.976235 81.139912 42.537743 81.306645 41.664468 C 81.473375 40.791206 81.78546 39.282804 82.00016600000001 38.312486 C 82.633829 35.448793 83.02699600000001 33.495299 83.384922 31.432123 C 83.57008400000001 30.364808 83.88340000000001 28.697663000000002 84.081181 27.727354000000002 C 84.278961 26.757045 84.769683 24.05787 85.171673 21.729188 C 86.150154 16.06096 86.536297 14.841618 87.464945 14.487631 C 87.886269 14.327024 95.27715 14.154345000000001 103.88912 14.103884 C 112.50109 14.053424000000001 120.49972000000001 13.985306000000001 121.66385000000001 13.952496 C 122.82800000000002 13.919666 131.71787 13.775023000000001 141.41915 13.631012 C 151.12041 13.48701 163.97898 13.28935 169.99376 13.191771 C 176.00855 13.094190999999999 186.88279 12.925573 194.15874000000002 12.817053 C 208.81380000000001 12.598481999999999 223.75975000000003 12.373424 243.19423000000003 12.078688999999999 C 250.27614000000003 11.971293999999999 266.15101000000004 11.795532999999999 278.47169 11.688109999999998 C 290.79234 11.580684999999999 308.5561 11.379705999999999 317.94669000000005 11.241479999999997 L 335.02045000000004 10.990158999999997 L 334.80815 12.547964999999996 C 334.54218000000003 14.499882999999997 333.346 20.050843999999998 332.83827 21.689681999999998 C 332.62828 22.367679999999996 332.45692 23.518765 332.45755 24.247649 C 332.45825 24.976535 332.29998 25.573037 332.10593 25.5732 C 331.9119 25.573323 331.75355 26.046539 331.75405 26.624697 C 331.75492 27.202843 331.52515 28.274616 331.24416 29.006387 C 330.96319 29.738159 330.63364 30.892596 330.51178000000004 31.571798 C 329.67453000000006 36.238173 329.19636 38.423617 328.38869000000005 41.275026 C 328.05886000000004 42.43947 327.71612000000005 44.106646999999995 327.62710000000004 44.979842 C 327.39152 47.28615 326.85281000000003 47.714602 323.89314 47.946934 C 322.50304 48.05605 313.66635 48.235113999999996 304.2561 48.344847 C 280.19937 48.625389 261.45635 48.892166 251.16367 49.100558 C 229.88756999999998 49.531345 211.63533 49.832334 182.90213 50.22623 C 175.82019 50.32333 166.13661 50.509217 161.38304 50.639355 C 156.62945 50.769486 149.32708 50.918013 145.15553 50.969419 C 140.98399 51.020829 128.76037 51.17617 117.99194 51.314625 C 79.39259200000001 51.81093 80.615459 51.80986 79.982883 51.348115 Z M 138.87245000000001 46.512558999999996 C 142.20592000000002 45.807114 142.40320000000003 45.59714399999999 144.6388 40.37513499999999 C 144.88809 39.792838999999994 145.47747 38.442950999999994 145.94853 37.37539699999999 C 146.4196 36.30783799999999 147.16438 34.402193999999994 147.60363 33.14063499999999 C 148.5932 30.298414999999988 148.93984 29.813420999999988 149.5942 30.35553799999999 C 149.8597 30.57548899999999 150.07703 30.883167999999987 150.07716 31.03926899999999 C 150.07721999999998 31.19538299999999 150.63406999999998 32.52549599999999 151.31445 33.99510699999999 C 151.9948 35.46471899999999 152.55166 36.88514399999999 152.55187999999998 37.15160599999999 C 152.55210999999997 37.418069999999986 152.79058999999998 37.833508999999985 153.08183 38.07479999999999 C 153.37309 38.31609399999999 153.61157 38.72749799999999 153.6118 38.98902799999999 C 153.6127 39.813979999999994 155.39012 43.38252599999999 156.31843999999998 44.42258599999999 C 157.68871 45.95783399999999 158.91382 46.30838799999999 162.12903999999997 46.08522499999999 C 164.77684999999997 45.90144199999999 165.03194999999997 45.81224199999998 165.99266999999998 44.73430399999999 C 166.55843 44.099524999999986 167.02109999999996 43.32299699999999 167.02083 43.00868699999999 C 167.02113 42.69437599999999 167.15407 42.28630299999999 167.31749 42.101829999999985 C 167.48092 41.91736799999998 167.89269 40.81369299999999 168.2325 39.64923899999999 C 168.57231 38.48477599999999 169.01308999999998 36.97627099999999 169.212 36.297001999999985 C 169.41091 35.61773299999999 169.72678 34.664960999999984 169.91395 34.17972899999999 C 170.33358 33.09186299999999 170.99837 30.986846999999987 171.58558 28.886617999999988 C 171.82978 28.013282999999987 172.4128 26.159130999999988 172.88118 24.766279999999988 C 173.34956 23.37343099999999 173.82695 21.432806999999986 173.94205 20.453786999999988 C 174.13872999999998 18.78057599999999 174.08261 18.60969299999999 173.00679 17.606452999999988 C 172.02208 16.68817699999999 171.59333 16.53938499999999 169.93610999999999 16.540814999999988 C 167.95150999999998 16.542514999999987 166.80014 16.949738999999987 166.02318999999997 17.92472999999999 C 165.25773999999998 18.88528999999999 164.53224999999998 20.81976099999999 164.53315999999998 21.89774299999999 C 164.53394999999998 22.465759999999992 164.31638999999998 23.359373999999992 164.05042999999998 23.88355099999999 C 163.78444 24.40772199999999 163.29962999999998 25.94806899999999 162.97311999999997 27.30654499999999 C 162.07703999999995 31.03451199999999 160.90756999999996 34.89305199999999 160.67365999999996 34.89325299999999 C 160.55929999999995 34.89323199999999 160.27912999999995 34.457028999999984 160.05105999999995 33.923650999999985 C 158.54736999999994 30.406837999999986 157.73018999999994 28.545351999999987 157.14844999999994 27.311566999999986 C 155.76567999999995 24.378931999999985 155.00874999999994 22.577160999999986 155.00844999999995 22.217485999999987 C 155.00816999999995 22.012815999999987 154.86922999999996 21.845475999999987 154.69944999999996 21.845621999999988 C 154.52966999999995 21.845779999999987 154.29560999999995 21.372277999999987 154.17932999999996 20.793419999999987 C 153.86243999999996 19.215974999999986 151.90285999999998 17.281404999999985 150.24136999999996 16.905672999999986 C 147.43001999999996 16.269907999999987 145.02391999999995 17.601142999999986 143.84632999999997 20.443867999999988 C 143.14093999999997 22.146746999999987 142.66863999999995 23.25956599999999 142.12391999999997 24.502299999999988 C 141.86866999999998 25.084603999999988 141.31847999999997 26.513828999999987 140.90124999999998 27.678353999999988 C 139.18522 32.46798299999999 138.70544999999998 33.69857299999999 138.15527999999998 34.72147799999999 L 137.57783999999998 35.79511299999999 L 137.44892 34.91327999999999 C 137.37802 34.42826999999999 137.17454999999998 33.88075899999999 136.99679999999998 33.696585999999996 C 136.81904999999998 33.512412 136.67333999999997 33.06028 136.67302999999998 32.691846 C 136.67267999999999 32.323415 136.45445999999998 31.521911999999997 136.18802999999997 30.910736 C 135.92158999999998 30.29956 135.50221999999997 29.085303 135.25604999999996 28.212389 C 134.27329999999995 24.727164000000002 134.08661999999995 24.109307 133.65760999999995 22.922099000000003 C 133.41228999999996 22.243212000000003 133.02061999999995 21.045990000000003 132.78721999999996 20.261607 C 132.18281999999996 18.230399000000002 130.67167999999995 17.280227 128.04931999999997 17.282490000000003 C 124.18226999999996 17.285790000000002 122.88505999999997 19.306180000000005 124.26157999999997 23.181698000000004 C 124.97153999999996 25.180510000000005 128.29589999999996 34.59011 128.90743999999998 36.331756000000006 C 129.0777 36.816680000000005 129.64473999999998 38.324313000000004 130.16751999999997 39.68206300000001 C 130.69029999999998 41.03980200000001 131.19505999999996 42.49286800000001 131.28919999999997 42.911078 C 131.57375999999996 44.175132000000005 133.24748999999997 45.85649900000001 134.74455999999998 46.382209 C 136.49116999999998 46.995534000000006 136.57736999999997 46.998259000000004 138.87245 46.512562 Z M 212.86095 44.419678999999995 C 214.98514 43.40905599999999 214.98724 40.758025999999994 212.86495 39.715894999999996 C 211.88419 39.23437 210.59449 39.114101999999995 206.30544 39.104175 C 200.2113 39.090125 200.54609 39.290275 200.53349 35.652628 L 200.52649 33.800553 L 203.61327 33.786343 C 208.82063 33.762383 211.50677 33.281059 212.42936 32.206622 C 213.49439 30.966271000000003 213.44911 29.538729000000004 212.31107 28.472011000000002 C 211.42888 27.645265000000002 211.22578000000001 27.617703000000002 206.04852 27.622169000000003 L 200.69773 27.626769000000003 L 200.4921 25.333888 C 200.37893 24.072805000000002 200.37797999999998 22.930573000000003 200.49009999999998 22.7956 C 200.60196 22.660618 203.30771 22.395681 206.50280999999998 22.206843 C 210.11454999999998 21.993377 212.36069999999998 21.717226 212.44062999999997 21.476816 C 212.51132999999996 21.264129999999998 212.77682999999996 21.089954 213.03067999999996 21.089734 C 213.62102999999996 21.089256 214.01861999999997 19.518308 213.74379999999996 18.272171 C 213.30208999999996 16.269309 211.07920999999996 15.889633 201.39359999999996 16.162731 C 193.41732999999996 16.387627000000002 192.98678999999996 16.487308000000002 191.87950999999995 18.36549 C 191.35709999999995 19.251587 191.30488999999994 20.090110000000003 191.48224999999996 24.744829000000003 C 191.59465999999998 27.692357 191.71474999999995 32.703738 191.74920999999998 35.88123 C 191.82770999999997 43.096090000000004 192.06826999999998 44.174627 193.7497 44.843596000000005 C 195.62192 45.588472 211.12729 45.244521000000006 212.86104 44.419647000000005 Z M 238.71777 44.544172999999994 C 240.7863 43.67778899999999 241.07095 42.872513999999995 241.17726 37.58620599999999 L 241.27176 32.88347499999999 L 242.50746 34.03208399999999 C 243.18711000000002 34.66382199999999 244.14037000000002 35.55013599999999 244.62583 36.001676999999994 C 245.1113 36.45321599999999 247.37800000000001 38.51359299999999 249.66296 40.580302999999994 L 253.81742 44.33794199999999 L 255.9512 44.33614199999999 C 258.22691 44.334141999999986 259.22302 43.971020999999986 260.21575 42.78136399999999 C 261.47327 41.27441999999999 261.06672000000003 40.48129899999999 257.35029000000003 37.19117999999999 C 256.74816000000004 36.65812399999999 256.09949 36.22211899999999 255.90883000000002 36.22228399999999 C 255.71815000000004 36.22247699999999 255.56169000000003 36.10351699999999 255.56115000000003 35.957999999999984 C 255.56056000000004 35.81247099999998 254.84921000000003 35.21777999999998 253.98025 34.63644699999998 C 253.11132 34.05511199999998 252.39678 33.46041599999998 252.39237 33.31489899999998 C 252.38837 33.169372999999986 252.14628 33.05052699999998 251.85524 33.050778999999984 C 250.90759 33.05159899999998 251.29754 32.43949699999998 252.38367 32.221296999999986 C 255.20427 31.654646999999986 258.28216 29.607391999999987 259.25933 27.647952999999987 C 261.35143 23.45290999999999 259.49120999999997 19.045285999999987 254.66340999999997 16.758275999999988 L 252.19294999999997 15.587979999999988 L 243.70795999999996 15.638319999999988 C 234.64820999999995 15.692069999999989 233.49894999999995 15.890903999999988 232.60827999999995 17.558616999999987 C 232.08687999999995 18.53485399999999 232.15697999999995 40.50448199999999 232.68707999999995 42.26834499999998 C 232.95740999999995 43.16784199999998 233.46423999999996 43.78510499999998 234.35650999999996 44.30148699999998 C 235.87245999999996 45.178829999999984 237.04646999999997 45.24416799999998 238.71765999999997 44.54421999999998 Z M 241.32403 27.883456999999993 C 241.19583 27.755473999999992 241.0898 26.327844999999993 241.0884 24.710943999999994 L 241.08540000000002 21.771130999999993 L 242.93743000000003 21.705150999999994 C 249.17756000000003 21.482866999999995 251.27582000000004 22.214894999999995 251.30721000000003 24.625150999999995 C 251.32381000000004 25.937017999999995 250.08968000000002 27.349760999999994 248.74803000000003 27.553594999999994 C 246.52712000000002 27.891008999999993 241.55254000000002 28.112019999999994 241.32356000000001 27.883447999999994 Z M 291.78098 43.18887699999999 C 293.4925 42.33789999999999 293.70023 40.97256099999999 293.62454 31.07294999999999 C 293.58594000000005 26.029081999999992 293.57624000000004 21.664132999999993 293.60284 21.373068999999994 C 293.63924000000003 20.972852999999994 294.16813 20.831514999999992 295.77124000000003 20.793221999999993 C 296.93719000000004 20.765331999999994 298.58825 20.637424999999993 299.44032000000004 20.508900999999994 C 303.70321000000007 19.865883999999994 304.02624000000003 15.532110999999993 299.86493 14.812370999999995 C 297.12492000000003 14.338459999999996 279.15598 14.831330999999995 277.18834000000004 15.434276999999994 C 275.11743 16.068945999999993 274.70110000000005 18.798207999999995 276.47393000000005 20.117722999999994 C 277.27735000000007 20.715726999999994 278.14317000000005 20.891096999999995 280.9836700000001 21.031173999999993 L 284.4990700000001 21.204553999999995 L 284.68561000000005 31.082173999999995 C 284.78905000000003 36.55911 285.03445000000005 41.370856999999994 285.23631000000006 41.882451999999994 C 285.95113000000003 43.693546999999995 289.38660000000004 44.379344999999994 291.78091000000006 43.1889 Z M 330.03118 42.00856299999999 C 330.01568000000003 41.63668599999999 330.09878000000003 41.42826499999999 330.2161 41.54538399999999 C 330.33342999999996 41.662502999999994 330.34621 41.96676199999999 330.245 42.221509999999995 C 330.13272 42.503035 330.04893 42.419509 330.03166 42.008554999999994 Z M 56.937429 23.650504 C 59.449239 23.371160000000003 60.818376 23.011116 62.404246 22.212887000000002 C 65.579767 20.614535000000004 67.47121 19.346670000000003 67.705278 18.659529000000003 C 67.82058900000001 18.321031 68.10279200000001 17.841627000000003 68.33240400000001 17.594195000000003 C 69.870039 15.937195000000003 70.655285 12.048855000000003 70.02384300000001 9.218632100000002 C 69.512118 6.9250085 67.271794 4.9595325 64.47759 4.3528076 C 62.182268 3.8544103 42.841437 3.3358595 41.274023 3.7306924 C 40.614983 3.8967076 40.338802 4.1977737 40.33619 4.7530336 C 40.33409 5.1859015 39.938812 6.9680416 39.457660000000004 8.713342 C 38.976505 10.458642000000001 38.583349000000005 12.483046000000002 38.583977000000004 13.212014 C 38.584619 13.940983 38.466058000000004 14.537514 38.320537 14.537639 C 38.175016 14.537832 38.028805 15.014140000000001 37.99562 15.596252 C 37.863892 17.907125999999998 37.78541 18.418657 37.562592 18.418848 C 37.434924 18.418949 37.124612 19.537490000000002 36.873015 20.904479000000002 C 36.185571 24.639528000000002 35.753732 24.471880000000002 45.434736 24.228288000000003 C 49.918128 24.115482000000004 55.094341 23.855479000000003 56.937429 23.650504 Z M 41.149976 22.36219 C 39.6826 22.22197 39.298164 21.471347 39.671485 19.475365 C 41.445799 9.9887827 42.205559 6.8755365 42.921443 6.1581021 C 43.481602 5.5967316 44.443137 5.5365214 52.96538 5.5291736 C 61.28793 5.5219936 62.629997 5.5995796 64.44374400000001 6.1927408 C 67.98847900000001 7.3519929 68.97369400000001 9.6900996 67.69657800000002 13.912333 C 66.86279700000001 16.668872 64.31214000000001 19.806892 62.904356000000014 19.808107 C 62.55404400000001 19.808404 62.16944800000002 19.967489999999998 62.04969900000001 20.161621 C 61.92995400000001 20.355753 61.52384200000001 20.514853 61.14723900000001 20.515178 C 60.770634000000015 20.515487 60.46261800000001 20.647253 60.46275600000001 20.807955 C 60.46336400000001 21.459398 56.55629200000001 21.931097 51.00002000000001 21.950402 C 47.764865000000015 21.961592 44.483018000000015 22.083538 43.707025000000016 22.221278 C 42.931032000000016 22.359016 41.780360000000016 22.422427000000003 41.149977000000014 22.362185 Z M 56.188211 19.786229 C 62.026173 19.261324 65.777567 16.02236 65.879167 11.419028 C 65.926848 9.2589701 65.515418 8.7690236 63.108549 8.1196098 C 61.502896 7.6863797 46.567365 7.5961476 45.261696 8.0117922 C 44.135795 8.3702079 43.50334 9.0619831 43.595886 9.833844 C 43.638236 10.187071999999999 43.502906 11.111224 43.295171 11.887514 C 42.147937000000006 16.174396 41.831117000000006 19.644674 42.55854600000001 19.956088 C 43.18115400000001 20.222630000000002 52.64658000000001 20.104667000000003 56.18821400000001 19.786266 Z M 141.38171 8.0148236 C 142.54724 6.8866128 143.67786 5.9801198 143.91971 5.9799112999999995 C 144.03306 5.979811499999999 144.54692 5.679744899999999 145.06163 5.3130972 C 145.99265 4.649878899999999 149.74888 3.2842868 152.98279000000002 2.4333180999999997 C 155.19958000000003 1.8499957999999999 160.12187000000003 2.1907023 163.07727000000003 3.1320282999999995 C 164.30806000000004 3.5240494999999994 165.46035000000003 3.8446685999999994 165.63792000000004 3.8445162999999996 C 165.81549000000004 3.8443652999999998 166.33848000000003 4.2011001 166.80008000000004 4.6372648 C 168.92932000000005 6.649106 169.69309000000004 7.403603299999999 170.44287000000003 8.2357318 C 171.78664000000003 9.727109 172.68886000000003 9.1737755 171.77833000000004 7.4166994 C 170.61708000000004 5.1758266 168.26855000000003 3.3679943999999997 164.33936000000003 1.6904028999999996 C 161.63033000000001 0.5337640399999997 154.89976000000001 0.2980779699999996 150.94157 1.2212464999999997 C 148.66338000000002 1.7525820999999997 145.30588 3.0436499999999995 144.05652 3.8687667999999995 C 143.76563000000002 4.060868299999999 143.15094000000002 4.3802784 142.69055 4.5785655 C 141.24259 5.202177799999999 138.28097 8.2993423 138.52529 8.934427 C 138.79913000000002 9.646167499999999 140.14352000000002 9.213346099999999 141.38171 8.0148236 Z M 167.10305 8.8059171 C 167.53984 8.3769019 165.96788 6.8235644 163.99006 5.7297921 C 162.29929 4.7947688 162.01831 4.7538002 157.28644 4.7522887 C 154.57006 4.751431500000001 151.7715 4.925732200000001 151.06745 5.139657000000001 C 149.15995 5.7192404 146.02974 7.321183900000001 145.08282 8.202414300000001 L 144.24915 8.978238300000001 L 147.77116999999998 9.1515544 C 152.73784999999998 9.3960051 166.75744999999998 9.1453444 167.10305 8.8058791 Z M 212.49815 7.039932800000001 C 212.49726 6.297279100000001 212.09927000000002 4.713268800000001 211.61318 3.519926800000001 C 211.12707 2.326580400000001 210.72912 1.0913820000000007 210.72885 0.7750396600000009 C 210.72799999999998 0.11393559000000086 208.21582999999998 -5.128662799999999 207.81493 -5.305280499999999 C 207.6684 -5.3698345 207.54839 -5.5715672 207.54822000000001 -5.753586799999999 C 207.54794 -6.052605999999999 206.13816000000003 -8.3697825 205.25192 -9.527837199999999 C 204.41898 -10.616238999999998 198.96050000000002 -15.939779999999999 198.67769 -15.939536999999998 C 198.50693 -15.939328999999997 198.36708000000002 -16.098017999999996 198.36692000000002 -16.292046999999997 C 198.3668 -16.486091 198.19727000000003 -16.644677999999995 197.99030000000002 -16.644500999999998 C 197.67738000000003 -16.64424 195.44917 -18.137000999999998 194.83701000000002 -18.757004 C 194.73991 -18.855354 194.18402000000003 -19.173018 193.60168000000002 -19.462937999999998 C 193.01934000000003 -19.75286 192.46344000000002 -20.078469 192.36633 -20.186517999999996 C 192.02032 -20.571516999999997 188.83477 -21.928272999999997 188.27797 -21.927792999999994 C 187.96625 -21.927570999999993 187.21022000000002 -22.187666999999994 186.59793000000002 -22.505883999999995 C 184.48967000000002 -23.601588999999993 184.25633000000002 -23.688214999999996 183.41536000000002 -23.687489999999993 C 182.95135000000002 -23.687119999999993 181.95677000000003 -23.950195999999995 181.20519000000002 -24.272167999999994 C 180.45362000000003 -24.594141999999994 179.20364 -24.913070999999995 178.42747000000003 -24.980898999999994 C 177.65131000000002 -25.048738999999994 176.61929000000003 -25.205576999999995 176.13411000000002 -25.329449999999994 C 174.72475000000003 -25.689286999999993 174.26381000000003 -25.767855999999995 173.04686 -25.855683999999993 C 172.41622 -25.901193999999993 171.90016 -26.056917999999992 171.90002 -26.201726999999995 C 171.90040000000002 -26.346554999999995 168.24546 -26.459549999999993 163.77903 -26.452868999999996 C 158.8257 -26.445468999999996 155.73798 -26.311980999999996 155.86263 -26.110644999999995 C 155.98166 -25.918460999999994 155.10327 -25.779741999999995 153.75997999999998 -25.778581999999993 C 151.10413999999997 -25.77628199999999 143.84454999999997 -24.158198999999993 138.49177999999998 -22.375445999999993 C 136.51135999999997 -21.715860999999993 134.64649999999997 -21.175988999999994 134.34766999999997 -21.175730999999992 C 134.04884999999996 -21.17541199999999 133.80448999999996 -21.01651399999999 133.80466999999996 -20.822483999999992 C 133.80478999999997 -20.628438999999993 133.52714999999995 -20.464080999999993 133.18761999999995 -20.457205999999992 C 132.84806999999995 -20.45030599999999 131.93552999999994 -20.137427999999993 131.15974999999995 -19.761870999999992 C 130.38393999999994 -19.38631299999999 129.56399999999994 -19.07349199999999 129.33765999999994 -19.066712999999993 C 129.11128999999994 -19.059912999999995 128.87327999999994 -18.93527999999999 128.80872999999994 -18.789704999999994 C 128.74422999999993 -18.644124999999995 128.05661999999995 -18.228948999999993 127.28081999999993 -17.867087999999995 C 126.50501999999993 -17.505222999999994 125.47359999999993 -16.977269999999997 124.98876999999993 -16.693857999999995 C 124.50394999999993 -16.410444999999996 123.67087999999993 -15.995756999999996 123.13747999999993 -15.772329999999995 C 122.60409999999993 -15.548900999999995 122.16780999999993 -15.242150999999994 122.16793999999993 -15.090660999999995 C 122.16721999999993 -14.939185999999996 121.94998999999993 -14.815038999999995 121.68333999999993 -14.814806999999995 C 121.41669999999993 -14.814580999999995 120.63381999999993 -14.297964999999994 119.94364999999993 -13.666779999999996 C 119.25345999999993 -13.035594999999995 118.08328999999993 -12.202668999999997 117.34325999999993 -11.815829999999995 C 116.60322999999993 -11.428994999999995 115.91845999999993 -11.023879999999995 115.82152999999992 -10.915575999999994 C 115.72472999999992 -10.807269999999994 115.09000999999992 -10.340216999999994 114.41130999999993 -9.877673199999995 C 113.73260999999992 -9.415128099999995 112.48751999999993 -8.350139099999994 111.64444999999994 -7.511032799999995 C 110.80136999999993 -6.671925599999995 109.96852999999993 -5.985258799999995 109.79367999999994 -5.985107499999995 C 109.38286999999994 -5.984752699999995 109.39277999999995 -5.847616599999995 109.88087999999993 -4.778834199999995 L 110.28566999999994 -3.892414099999995 L 111.23697999999995 -4.675211699999995 C 111.76018999999995 -5.105748599999995 112.78245999999994 -5.934769399999995 113.50865999999995 -6.517478899999995 C 114.23487999999995 -7.100188199999995 115.28781999999995 -7.9954591999999955 115.84852999999995 -8.506969599999994 C 116.40923999999995 -9.018479199999994 117.70394999999995 -9.969228399999995 118.72564999999996 -10.619742999999994 C 119.74735999999996 -11.270256999999994 120.63607999999996 -11.924474999999994 120.70064999999995 -12.073556999999994 C 120.76514999999995 -12.222644999999995 121.12228999999995 -12.344879999999995 121.49415999999995 -12.345199999999993 C 121.86604999999994 -12.345558999999993 122.17018999999995 -12.504532999999993 122.17002999999995 -12.698559999999993 C 122.16989999999996 -12.892600999999994 122.32049999999995 -13.051467999999993 122.50479999999996 -13.051627999999994 C 122.68910999999996 -13.051745999999994 123.52215999999996 -13.509848999999994 124.35598999999996 -14.069550999999993 C 125.92720999999996 -15.124157999999994 132.44450999999995 -18.35186699999999 133.00371999999996 -18.352348999999993 C 133.17849999999996 -18.352551999999992 133.97836999999996 -18.670689999999993 134.78121999999996 -19.059436999999992 C 135.58407999999997 -19.44818499999999 136.47736999999995 -19.766456999999992 136.76633999999996 -19.76670499999999 C 137.05530999999996 -19.76692499999999 137.38969999999995 -19.92599299999999 137.50945999999996 -20.12012399999999 C 137.62919999999997 -20.31425399999999 138.18467999999996 -20.47348399999999 138.74387999999996 -20.47396699999999 C 139.30304999999996 -20.47447199999999 139.84299999999996 -20.60849499999999 139.94376999999997 -20.77184799999999 C 140.04460999999998 -20.935194999999993 141.36323999999996 -21.34616399999999 142.87422999999998 -21.68509899999999 C 144.38519999999997 -22.02403499999999 146.89121999999998 -22.58994699999999 148.44313 -22.94268499999999 C 152.65037 -23.89894899999999 156.16556 -24.18144799999999 163.7879 -24.17586999999999 C 170.46809000000002 -24.17096999999999 175.53689 -23.75168899999999 178.42924 -22.96473199999999 C 179.20552999999998 -22.75351599999999 180.55518 -22.43104199999999 181.42847 -22.248122999999993 C 184.60276000000002 -21.583229999999993 185.62071 -21.212441999999992 190.07424 -19.098863999999992 C 195.45755 -16.54402199999999 197.78594 -14.852240999999992 202.16223 -10.315877999999993 C 203.18144999999998 -9.259390899999993 204.1063 -8.109250299999992 204.21747 -7.760011499999992 C 204.32864999999998 -7.410775799999992 204.56767 -7.1251651999999925 204.74862 -7.125321299999992 C 204.92958 -7.125489899999993 205.07781999999997 -6.900709399999992 205.07805 -6.625834999999992 C 205.07855999999998 -6.350968899999993 205.21563999999998 -6.073270599999993 205.38326999999998 -6.0087377999999925 C 206.26059999999998 -5.671020699999993 210.73269 5.196090300000008 210.73423999999997 6.993997500000007 C 210.73523999999998 7.663822500000007 211.41519999999997 8.391158300000008 212.04071999999996 8.390618300000007 C 212.33713999999998 8.390372400000008 212.49891999999997 7.912678600000007 212.49816999999996 7.039935400000007 Z M 260.82683000000003 75.090571 C 259.48032 74.16230999999999 259.15174 73.740904 258.38654 71.961033 C 257.87007 70.759737 257.71499 69.851422 257.85580000000004 68.852519 C 258.51388000000003 64.18417 259.98237000000006 61.972954 264.01098 59.584179 C 265.32133000000005 58.807199 265.99973 58.661633 268.41987 58.638146 C 270.19243 58.620896 271.69266 58.79996 272.36493 59.109021 C 273.7486 59.745038 275.0622 61.722108 274.92071000000004 62.955619999999996 C 274.82511000000005 63.79022199999999 274.64196000000004 63.911550999999996 273.33403000000004 64.00774899999999 C 272.04211000000004 64.102769 271.77599000000004 63.99167899999999 271.22475000000003 63.12761799999999 C 270.33047000000005 61.72578599999999 270.10255 61.62145399999999 267.92504 61.61728999999999 C 265.30767000000003 61.61258999999999 263.76770000000005 62.66344599999999 262.51848 65.307735 C 261.23402 68.02663299999999 261.26097 70.059241 262.60138 71.55677399999999 C 263.50112 72.562029 263.81522 72.68466799999999 265.42423 72.65901099999999 C 267.26662000000005 72.62962099999999 268.60215 72.02118999999999 269.79126 70.669536 C 270.75497 69.574074 270.54878 69.370741 268.47605000000004 69.37252799999999 L 266.54459 69.37422799999999 L 266.74174000000005 68.22753399999999 C 267.10184000000004 66.13268199999999 266.97331 66.19886399999999 270.68772000000007 66.19565999999999 C 272.6017500000001 66.19406 274.26159000000007 66.28627999999999 274.3762300000001 66.40076299999998 C 274.4908900000001 66.51522399999999 274.35933000000006 67.24966399999998 274.08366000000007 68.03287599999999 C 273.8080800000001 68.81607299999999 273.58292000000006 69.78624799999999 273.5832500000001 70.18881699999999 C 273.5840600000001 70.59137199999999 273.31124000000005 71.84218599999998 272.97796000000005 72.96836099999999 C 272.27511000000004 75.34350799999999 271.37478000000004 75.93683399999999 270.36413000000005 74.690925 L 269.74250000000006 73.92459199999999 L 268.22558000000004 74.715989 C 266.26751 75.737539 262.07336000000004 75.949906 260.82691000000005 75.09061 Z M 275.93556 74.74596199999999 C 275.72745000000003 74.40810099999999 276.89972 67.16602699999999 277.25599 66.58842899999999 C 277.4033 66.34963199999999 277.62921 65.40807699999999 277.75804999999997 64.496096 L 277.99226 62.837931999999995 L 279.84139 62.729701999999996 C 280.96774999999997 62.663832 281.69067 62.766611999999995 281.69085 62.992687 C 281.69089 63.492853 282.65613 63.467056 282.82387 62.962416999999995 C 283.0326 62.334427999999996 286.81361 62.399136999999996 287.57581 63.043716999999994 C 288.2204 63.58885299999999 289.45246 63.56481999999999 289.45198 63.007096999999995 C 289.45112 62.426677 292.59936999999996 62.00117399999999 293.91528 62.40379899999999 C 296.25839 63.120709999999995 296.27285 64.714238 294.01428 73.31920799999999 C 293.67686 74.60472899999999 293.62097 74.642468 292.0525 74.643819 C 290.56034 74.645119 290.45155 74.58510899999999 290.61651 73.85130899999999 C 291.93719 67.97649699999998 292.19228 65.49623499999998 291.48246 65.43146399999999 C 289.17900000000003 65.221262 287.9753 66.587289 287.38821 70.077835 C 286.66547 74.375012 286.49355 74.64864 284.51541000000003 74.650346 L 282.82950000000005 74.651746 L 283.52376000000004 72.09350500000001 C 285.09900000000005 66.289033 285.07226 65.47757800000001 283.30576 65.47910100000001 C 282.02569 65.48020100000001 280.71589 66.51617600000002 280.50262000000004 67.69615000000002 C 280.01914000000005 70.37136700000002 279.05781 74.19237800000002 278.77399 74.56704300000001 C 278.4139 75.04236300000001 276.20379 75.18160900000001 275.93542 74.74588400000002 Z M 301.46214000000003 74.48306699999999 C 300.88298000000003 74.160146 300.38210000000004 74.103439 299.98589000000004 74.31593 C 299.65605000000005 74.492825 298.80750000000006 74.63804499999999 298.10024000000004 74.638656 C 296.88731000000007 74.639656 296.82486000000006 74.584656 297.00019000000003 73.669463 C 297.10249000000005 73.13579899999999 297.38626000000005 71.54805099999999 297.63090000000005 70.141138 C 297.87556000000006 68.734228 298.20939000000004 67.582999 298.37275000000005 67.582858 C 298.53614000000005 67.582676 298.57508000000007 67.42963400000001 298.45935000000003 67.242673 C 298.29047 66.969938 299.41929000000005 61.580192 300.25407 58.673592 C 300.38724 58.209793 300.80604 58.055757 301.93635 58.054781999999996 C 302.76407 58.054066 303.52649 58.138541999999994 303.63065 58.242540999999996 C 303.73481 58.34650799999999 303.60995 59.021311 303.35344 59.742081999999996 C 303.09684999999996 60.462863 302.88029 61.49323 302.87223 62.031796 C 302.85773 63.003342 302.86623000000003 63.006798 303.89795 62.471882 C 306.17981 61.289394 309.04713999999996 62.031771 310.10848999999996 64.079837 C 311.56578999999994 66.891972 309.37642999999997 72.530021 306.18080999999995 74.194447 C 304.93110999999993 74.845356 302.39063999999996 75.00074599999999 301.46217999999993 74.483077 Z M 304.71491000000003 71.72253099999999 C 305.89358000000004 71.05645399999999 306.27047000000005 70.43406999999999 306.77598 68.318823 C 307.13238 66.827444 307.14074 66.356228 306.81268 66.247193 C 306.57912 66.16959299999999 306.38784 65.891849 306.38761 65.630049 C 306.38693 64.900802 305.07932999999997 64.649827 303.93217 65.158786 C 301.95205999999996 66.03732400000001 300.77364 69.678802 301.8914 71.465169 C 302.39059999999995 72.262988 303.56851 72.370363 304.71493 71.722536 Z M 311.33368 73.96476399999999 C 311.33335 73.79443599999999 311.57103 73.08495899999998 311.86147 72.388139 C 312.15193 71.691328 312.38901 70.490484 312.38835 69.719595 C 312.38819 68.948699 312.54541 68.21967599999999 312.73974 68.09964 C 312.93365 67.979553 313.09186 67.34251599999999 313.09128 66.684007 C 313.09029999999996 66.025487 313.23729 65.12191 313.41692 64.676065 C 313.59658 64.23021999999999 314.02107 62.59519399999999 314.36021 61.04268 C 314.69936 59.490168 315.13131 58.115703999999994 315.32009999999997 57.988319999999995 C 315.50890999999996 57.860938999999995 316.31325999999996 57.780863999999994 317.10756 57.81038999999999 C 318.53562 57.86345999999999 318.55048 57.87782999999999 318.43996999999996 59.09888099999999 C 318.37846999999994 59.77803599999999 318.10241999999994 61.11496299999999 317.82638 62.06982299999999 C 317.55037 63.02468999999999 317.38993 63.871238999999996 317.46988 63.95105099999999 C 317.54988 64.030891 319.04804 63.98279099999999 320.79921 63.84426799999999 L 323.98325 63.592420999999995 L 324.53197 62.21758799999999 C 324.83377 61.461417999999995 325.08017 60.230383999999994 325.07952 59.48196599999999 C 325.07752 57.69001599999999 325.63673 57.273835999999996 327.67204 57.55101899999999 C 329.33268999999996 57.77717299999999 329.58101999999997 57.97254299999999 328.97764 58.57824499999999 C 328.67417 58.88289599999999 328.46801 59.79508399999999 327.58603 64.73541599999999 C 327.43005 65.60866599999999 327.17755 66.61752899999999 327.0247 66.97732199999999 C 326.87191 67.337122 326.48428 69.00432899999998 326.16328 70.68223599999999 L 325.57966999999996 73.73297999999998 L 323.76759999999996 73.84050599999998 L 321.95559 73.94803999999998 L 322.1488 72.60717999999997 C 322.25508 71.86970799999997 322.56261 70.37010199999997 322.83217 69.27470999999997 C 323.10178 68.17931799999997 323.32226 67.18693599999997 323.32215 67.06942699999998 C 323.32115000000005 66.95189899999998 321.81384 66.85705899999998 319.97058000000004 66.85864899999997 C 317.0133 66.86114899999997 316.61946000000006 66.93413899999997 316.62147000000004 67.47890699999998 C 316.62347000000005 67.81843899999998 316.39593 68.81083499999998 316.11742000000004 69.68420399999998 C 315.83895 70.55756299999997 315.4361 71.94697099999998 315.22223 72.77177599999997 L 314.83335000000005 74.27142199999997 L 313.08365000000003 74.27292199999997 C 312.1213 74.27374399999997 311.33380000000005 74.13507599999997 311.33366 73.96472999999996 Z " fill="#B9B4C3"/>
</svg>
